<svg xmlns="http://www.w3.org/2000/svg" xmlns:xlink="http://www.w3.org/1999/xlink" height="35" width="210"><text y="26.353" x="39.564" xml:space="preserve" font-size="26.667" font-family="sans-serif" letter-spacing="0" word-spacing="0" fill="#00853f"><tspan y="26.353" x="39.564" font-size="24.667"><tspan font-family="Museo">DefarSama</tspan><tspan font-family="Swis721 BdRnd BT" fill="#e31b23">Gox</tspan></tspan></text><path d="M16.8 30c-2.2 0-4.3-.5-6.1-1.5l5.6-5.8 1.5.1a6 6 0 0 0 5.7-7.4l-3 3.1-3.6-.7-.7-3.4 3.2-3.1c-.5-.2-1-.3-1.6-.3a6 6 0 0 0-6 6c0 .6.2 1.3.4 1.9l-5.7 5.8c-1.4-2-2.2-4.4-2.2-7 0-6.8 5.6-12.4 12.5-12.4 6.8 0 12.4 5.6 12.4 12.4s-5.6 12.4-12.4 12.4m0-28C8 2 1 9 1 17.7s7 15.6 15.8 15.6c8.7 0 15.7-7 15.7-15.6s-7-15.6-15.7-15.6" fill="#fdef42" fill-rule="evenodd"/><g transform="matrix(.014734 .013495 -.013495 .014734 15.550621 19.27354)" fill="#00853f"><use xlink:href="#B"/><use xlink:href="#C"/><g transform="rotate(72)"><use xlink:href="#B"/><use xlink:href="#C"/></g><g transform="rotate(144)"><use xlink:href="#B"/><use xlink:href="#C"/></g><g transform="rotate(216)"><use xlink:href="#B"/><use xlink:href="#C"/></g><g transform="rotate(288)"><use xlink:href="#B"/><use xlink:href="#C"/></g></g><g fill-rule="evenodd"><path d="M16.3 22.7l1.5.1c3.825-.085 6.594-3.68 5.7-7.4" fill="#e31b23"/><path d="M19.4 11.3c-.5-.2-1-.3-1.6-.3a6 6 0 0 0-6 6c0 .6.2 1.3.4 1.9" fill="#00853f"/></g><defs ><path id="B" d="M0-100L-30.902-4.894l47.553 15.451z"/><path id="C" d="M0-100L30.902-4.894-16.651 10.557z"/></defs></svg>